<svg id="Capa_1" enable-background="new 0 0 512 512" height="512" viewBox="0 0 512 512" width="512" xmlns="http://www.w3.org/2000/svg"><g><g><g><path d="m497.976 45.005c8.284-14.349 3.368-32.696-10.981-40.981-14.349-8.284-32.697-3.368-40.981 10.981l-87.5 151.554 51.962 30z"/></g><g><g><path d="m236.329 288.191c10.881-18.847 47.209-37.713 80.058-53.058-20.36 22.06-41.065 46.001-53.366 66.867h35.99c13.385-18.279 31.908-38.598 49.151-56.966-5.423 19.175-11.472 39.509-18.672 56.966h32.182c4.883-13.27 9.174-27.281 13.106-40.916 2.588 13.792 5.011 28.28 5.267 40.916h29.992c-.283-17.783-3.947-36.978-7.281-54.371-1.577-8.23-3.093-16.154-4.133-23.271l-57.886-33.42c-5.541 2.589-11.453 5.281-17.585 8.072-44.495 20.256-94.927 43.215-112.805 74.181-5.598 9.696-9.743 19.346-12.397 28.809h31.647c1.793-4.512 4.025-9.121 6.732-13.809z"/></g><path d="m497 332h-380c-8.284 0-15 6.716-15 15s6.716 15 15 15h5v85c0 35.841 29.159 65 65 65h240c35.841 0 65-29.159 65-65v-85h5c8.284 0 15-6.716 15-15s-6.716-15-15-15z"/></g></g><g><path d="m98.5 123.972 26.958-17.972-26.958-17.972z"/><path d="m106 0c-58.449 0-106 47.551-106 106s47.551 106 106 106 106-47.551 106-106-47.551-106-106-106zm54.82 118.481-69 46c-2.51 1.673-5.411 2.519-8.321 2.519-2.427 0-4.859-.588-7.077-1.775-4.877-2.61-7.922-7.693-7.922-13.225v-92c0-5.532 3.045-10.615 7.922-13.225 4.877-2.611 10.796-2.324 15.398.744l69 46c4.173 2.782 6.68 7.466 6.68 12.481s-2.506 9.699-6.68 12.481z"/></g></g></svg>